<svg width="144" height="144" viewBox="0 0 144 144" fill="none" xmlns="http://www.w3.org/2000/svg">
<path d="M109.185 87.5304L71.9363 68.8921L34.686 87.5304C28.1689 98.6244 21.4398 119.066 42.0787 139.445C45.0428 142.372 49.0507 144 53.2156 144H90.6548C94.8197 144 98.8286 142.372 101.792 139.445C122.432 119.066 115.703 98.6244 109.185 87.5304Z" fill="#60757A"/>
<path d="M109.185 87.5303C105.543 89.4056 101.397 90.9185 96.7566 92.0566C89.7177 93.7815 81.3658 94.6571 71.9363 94.6571C62.5056 94.6571 54.1549 93.7815 47.116 92.0566C42.4742 90.9185 38.328 89.4056 34.6871 87.5303C37.804 82.2217 40.8702 79.0554 40.8702 79.0554H103.001C103.001 79.0554 106.069 82.2217 109.185 87.5303Z" fill="#E1738C"/>
<path d="M45.4779 7.91892C45.4779 7.91892 37.5677 0.931619 25.2653 2.72678C22.4132 3.14317 20.15 5.33054 19.5864 8.15623C18.1978 15.1293 17.4814 29.2478 29.5708 42.4621L45.4779 7.91892Z" fill="#60757A"/>
<path d="M98.3936 7.91892C98.3936 7.91892 106.304 0.931619 118.607 2.72678C121.458 3.14317 123.721 5.33054 124.285 8.15623C125.674 15.1293 126.39 29.2478 114.301 42.4621L98.3936 7.91892Z" fill="#60757A"/>
<path d="M106.126 7.01697C105.338 6.22156 104.523 5.4635 103.681 4.7417C100.296 6.24133 98.3936 7.91895 98.3936 7.91895L114.301 42.4622C116.405 40.1627 118.12 37.8358 119.511 35.5243C118.408 28.0997 115.237 16.2125 106.126 7.01697Z" fill="#383E41"/>
<path d="M24.36 35.5243C25.7531 37.8358 27.468 40.1627 29.5708 42.4622L45.479 7.91895C45.479 7.91895 43.5751 6.24133 40.1902 4.7417C39.3497 5.4635 38.5345 6.22266 37.7468 7.01697C28.6348 16.2125 25.463 28.1008 24.36 35.5243Z" fill="#383E41"/>
<path d="M30.765 12.1641H30.743C29.4082 12.1652 28.2953 13.1935 28.1569 14.5195C27.5098 20.6884 28.3645 30.2377 36.702 39.3508L41.9557 15.7972C41.7546 15.6302 37.5095 12.1641 30.765 12.1641Z" fill="#E4E9E9"/>
<path d="M113.108 12.1641H113.13C114.463 12.1652 115.576 13.1935 115.715 14.5195C116.362 20.6884 115.507 30.2377 107.169 39.3508L101.916 15.7972C102.117 15.6302 106.363 12.1641 113.108 12.1641Z" fill="#E4E9E9"/>
<path d="M110.581 12.3301C105.317 13.02 102.09 15.6523 101.916 15.7974L107.169 39.351C112.777 33.2217 114.997 26.8969 115.655 21.5344C114.37 18.4725 112.714 15.3381 110.581 12.3301Z" fill="#CBD4D6"/>
<path d="M28.2173 21.5355C28.8743 26.8979 31.0946 33.2217 36.702 39.351L41.9557 15.7974C41.781 15.6523 38.5543 13.02 33.2908 12.3301C31.1572 15.3381 29.5016 18.4725 28.2173 21.5355Z" fill="#CBD4D6"/>
<path d="M114.302 42.4633C114.302 42.4633 114.694 0 71.9363 0C29.1775 0 29.5697 42.4633 29.5697 42.4633C29.5697 42.4633 13.8087 73.2667 49.5714 82.0338C55.5051 83.4873 62.8561 84.3365 71.9363 84.3365C81.0154 84.3365 88.3663 83.4873 94.3 82.0338C130.063 73.2667 114.302 42.4633 114.302 42.4633Z" fill="#60757A"/>
<path d="M64.7007 39.1255C59.7503 40.9064 57.4816 44.4396 56.4434 47.2367C55.4909 49.8053 53.8825 52.0674 51.8039 53.8527C47.0567 57.9286 40.5396 66.9615 49.5714 82.0304V82.0337C55.5051 83.4872 62.8561 84.3364 71.9363 84.3364C81.0154 84.3364 88.3664 83.4872 94.3001 82.0337V82.0304C103.332 66.9615 96.8148 57.9275 92.0677 53.8527C89.989 52.0685 88.3806 49.8053 87.4281 47.2367C86.391 44.4451 84.1289 40.9185 79.1961 39.1354L79.1708 39.1255H64.7007Z" fill="#E4E9E9"/>
<path d="M49.8197 37.0085C48.6189 37.0085 47.6466 37.9819 47.6466 39.1816V43.1851C47.6466 44.3848 48.6189 45.3582 49.8197 45.3582C51.0194 45.3582 51.9928 44.3848 51.9928 43.1851V39.1816C51.9928 37.9819 51.0194 37.0085 49.8197 37.0085Z" fill="#383E41"/>
<path d="M94.0518 37.0085C92.851 37.0085 91.8787 37.9819 91.8787 39.1816V43.1851C91.8787 44.3848 92.851 45.3582 94.0518 45.3582C95.2526 45.3582 96.2249 44.3848 96.2249 43.1851V39.1816C96.2249 37.9819 95.2526 37.0085 94.0518 37.0085Z" fill="#383E41"/>
<path d="M82.548 50.4449C81.6438 49.655 80.2705 49.7462 79.4817 50.6503C78.7654 51.4688 77.6887 51.939 76.5264 51.939C75.3651 51.939 74.2873 51.4688 73.5721 50.6503C73.17 50.1911 72.5438 49.9099 71.9341 49.9099C71.3144 49.9099 70.7069 50.1834 70.3004 50.6503C69.5841 51.4688 68.5074 51.939 67.3451 51.939C66.1838 51.939 65.1061 51.4688 64.3909 50.6503C63.6009 49.7473 62.2277 49.655 61.3246 50.4449C60.4204 51.2337 60.3281 52.607 61.118 53.5112C62.6594 55.2734 64.9292 56.2841 67.3451 56.2841C69.0084 56.2841 70.6014 55.8062 71.9363 54.9328C73.27 55.8062 74.8641 56.2841 76.5275 56.2841C78.9434 56.2841 81.2131 55.2734 82.7534 53.5112C83.5433 52.607 83.451 51.2348 82.548 50.4449Z" fill="#383E41"/>
<path d="M49.8197 113.592C48.6189 113.592 47.6466 114.565 47.6466 115.765C47.6466 129.682 52.9761 139.949 55.4766 144H60.561C60.4918 143.747 60.3765 143.502 60.2106 143.279C60.1282 143.168 51.9928 132.051 51.9928 115.765C51.9928 114.565 51.0194 113.592 49.8197 113.592Z" fill="#383E41"/>
<path d="M71.9363 113.592C70.7355 113.592 69.7632 114.565 69.7632 115.765V144H74.1094V115.765C74.1094 114.565 73.136 113.592 71.9363 113.592Z" fill="#383E41"/>
<path d="M77.1163 97.6058C77.1163 100.468 74.7971 102.787 71.9363 102.787C69.0743 102.787 66.7551 100.468 66.7551 97.6058C66.7551 94.745 69.0743 92.4258 71.9363 92.4258C74.7971 92.4258 77.1163 94.745 77.1163 97.6058Z" fill="#EEE07D"/>
<path d="M71.9363 37.9897C69.0425 37.9897 66.6617 38.4204 64.7007 39.1257C65.2467 42.6304 68.2778 45.3121 71.9363 45.3121C75.5936 45.3121 78.6248 42.6304 79.1708 39.1257C77.2097 38.4204 74.829 37.9897 71.9363 37.9897Z" fill="#383E41"/>
<path d="M91.8787 115.765C91.8787 132.023 83.7729 143.128 83.662 143.278C83.495 143.501 83.3796 143.747 83.3093 144H88.396C90.8954 139.949 96.2249 129.682 96.2249 115.765C96.2249 114.565 95.2526 113.592 94.0518 113.592C92.851 113.592 91.8787 114.565 91.8787 115.765Z" fill="#383E41"/>
</svg>
